<?xml version="1.0" encoding="utf-8"?>
<!-- Generator: Adobe Illustrator 27.9.1, SVG Export Plug-In . SVG Version: 6.00 Build 0)  -->
<svg version="1.1" xmlns="http://www.w3.org/2000/svg" xmlns:xlink="http://www.w3.org/1999/xlink" x="0px" y="0px"
	 viewBox="0 0 2200 2200" style="enable-background:new 0 0 2200 2200;" xml:space="preserve">
<style type="text/css">
	.st0{fill:#609ED4;}
</style>
<g id="background">
</g>
<g id="Objects">
	<g>
		<path class="st0" d="M2006.2,1049.6c-24.7,0-45.2,17.7-49.5,41.1h-273.6c-1.2-75.5-16.5-148.7-45.8-217.8
			c-4.9-11.6-10.2-23.1-15.8-34.3h349.9v-18.5h-359.6c-26.5-48.5-59.9-93-99.5-132.6c-2.3-2.3-4.6-4.5-6.8-6.7h181.6v-18.5h-201.6
			c-19.1-16.9-39.3-32.5-60.3-46.6V364h248c4.3,23.4,24.8,41.1,49.5,41.1c27.8,0,50.4-22.5,50.4-50.4s-22.5-50.4-50.4-50.4
			c-24.7,0-45.2,17.7-49.5,41.1h-266.5v258.4c-25.4-15.7-52-29.5-79.8-41.2c-20.3-8.6-41.1-16-62.1-22.2V359.7h-18.5v175.7
			c-44.6-11.5-90.5-17.7-137.2-18.4V243.3c23.4-4.3,41.1-24.8,41.1-49.5c0-27.8-22.5-50.4-50.4-50.4s-50.4,22.5-50.4,50.4
			c0,24.7,17.7,45.2,41.1,49.5v273.6c-46.7,0.7-92.6,6.9-137.2,18.4V359.7h-18.5v180.8c-21,6.2-41.7,13.6-62.1,22.2
			c-27.8,11.7-54.4,25.5-79.8,41.2V345.5H526.7c-4.3-23.4-24.8-41.1-49.5-41.1c-27.8,0-50.4,22.5-50.4,50.4s22.5,50.4,50.4,50.4
			c24.7,0,45.2-17.7,49.5-41.1h248v251.8c-21,14.2-41.2,29.7-60.3,46.6H512.8v18.5h181.6c-2.3,2.2-4.6,4.5-6.8,6.7
			c-39.6,39.6-72.9,84-99.5,132.6H228.6v18.5h349.9c-5.6,11.2-10.9,22.7-15.8,34.3c-29.2,69.1-44.6,142.3-45.8,217.8H243.3
			c-4.3-23.4-24.8-41.1-49.5-41.1c-27.8,0-50.4,22.5-50.4,50.4s22.5,50.4,50.4,50.4c24.7,0,45.2-17.7,49.5-41.1h273.6
			c1.2,75.5,16.5,148.7,45.8,217.8c4.9,11.6,10.2,23.1,15.8,34.3H228.6v18.5h359.6c26.5,48.5,59.9,93,99.5,132.6
			c2.3,2.3,4.6,4.5,6.8,6.7H512.8v18.5h201.6c19.1,16.9,39.3,32.5,60.3,46.6V1836h-248c-4.3-23.4-24.8-41.1-49.5-41.1
			c-27.8,0-50.4,22.5-50.4,50.4c0,27.8,22.5,50.4,50.4,50.4c24.7,0,45.2-17.7,49.5-41.1h266.5v-258.4c25.4,15.7,52,29.5,79.8,41.2
			c20.3,8.6,41.1,16,62.1,22.2v180.8h18.5v-175.7c44.6,11.5,90.5,17.7,137.2,18.4v273.6c-23.4,4.3-41.1,24.8-41.1,49.5
			c0,27.8,22.5,50.4,50.4,50.4s50.4-22.5,50.4-50.4c0-24.7-17.7-45.2-41.1-49.5v-273.6c46.7-0.7,92.6-6.9,137.2-18.4v175.7h18.5
			v-180.8c21-6.2,41.7-13.6,62.1-22.2c27.8-11.7,54.4-25.5,79.8-41.2v258.4h266.5c4.3,23.4,24.8,41.1,49.5,41.1
			c27.8,0,50.4-22.5,50.4-50.4c0-27.8-22.5-50.4-50.4-50.4c-24.7,0-45.2,17.7-49.5,41.1h-248v-251.8c21-14.2,41.2-29.7,60.3-46.6
			h201.6v-18.5h-181.6c2.3-2.2,4.6-4.5,6.8-6.7c39.6-39.6,72.9-84,99.5-132.6h359.6v-18.5h-349.9c5.6-11.2,10.9-22.7,15.8-34.3
			c29.2-69.1,44.6-142.3,45.8-217.8h273.6c4.3,23.4,24.8,41.1,49.5,41.1c27.8,0,50.4-22.5,50.4-50.4S2034,1049.6,2006.2,1049.6z
			 M1620.3,1319.8c-28.4,67.2-69.2,127.6-121,179.5s-112.3,92.6-179.5,121c-69.6,29.4-143.6,44.4-219.8,44.4s-150.2-14.9-219.8-44.4
			c-67.2-28.4-127.6-69.2-179.5-121s-92.6-112.3-121-179.5c-29.4-69.6-44.4-143.6-44.4-219.8c0-76.2,14.9-150.2,44.4-219.8
			c28.4-67.2,69.2-127.6,121-179.5c51.9-51.9,112.3-92.6,179.5-121c69.6-29.4,143.6-44.4,219.8-44.4s150.2,14.9,219.8,44.4
			c67.2,28.4,127.6,69.2,179.5,121c51.9,51.9,92.6,112.3,121,179.5c29.4,69.6,44.4,143.6,44.4,219.8
			C1664.7,1176.2,1649.8,1250.2,1620.3,1319.8z"/>
		<g>
			<path class="st0" d="M1217.4,1029.2H982.6c-25.5,0-46.1,20.7-46.1,46.1V1310c0,25.5,20.7,46.1,46.1,46.1h234.7
				c25.5,0,46.1-20.7,46.1-46.1v-234.7C1263.5,1049.8,1242.8,1029.2,1217.4,1029.2z M1121.9,1201.9v30.5c0,12.1-9.8,21.9-21.9,21.9
				c-6,0-11.5-2.4-15.5-6.4c-4-4-6.4-9.4-6.4-15.5v-30.5c-14.6-7.8-24.5-23.2-24.5-40.9c0-26.1,21.5-47.1,47.8-46.4
				c24,0.7,43.8,20.1,44.9,44.1C1147.2,1177.4,1137.1,1193.7,1121.9,1201.9z"/>
			<path class="st0" d="M1205.7,999.8h-33.2V924c0-40-32.5-72.5-72.5-72.5s-72.5,32.5-72.5,72.5v75.8h-33.2V924
				c0-58.3,47.4-105.7,105.7-105.7c58.3,0,105.7,47.4,105.7,105.7V999.8z"/>
		</g>
	</g>
</g>
</svg>
